# AST/ASF file generated using VICON BodyLanguage
# -----------------------------------------------
:version 1.10
:name VICON
:units
  mass 1.0
  length 0.45
  angle deg
:documentation
   .ast/.asf automatically generated from VICON data using
   VICON BodyBuilder and BodyLanguage model FoxedUp or BRILLIANT.MOD
:root
   order TX TY TZ RX RY RZ
   axis XYZ
   position 0 0 0  
   orientation 0 0 0 
:bonedata
  begin
     id 1 
     name lhipjoint
     direction 0.576517 -0.752066 0.319413 
     length 2.45433 
     axis 0 0 0  XYZ
  end
  begin
     id 2 
     name lfemur
     direction 0.34202 -0.939693 0  
     length 7.54459  
     axis 0 0 20  XYZ
    dof rx ry rz
    limits (-160.0 20.0)
           (-70.0 70.0)
           (-60.0 70.0)
  end
  begin
     id 3 
     name ltibia
     direction 0.34202 -0.939693 0   
     length 7.73986   
     axis 0 0 20   XYZ
    dof rx
    limits (-10.0 170.0)
  end
  begin
     id 4 
     name lfoot
     direction 0.090693 -0.249177 0.964202   
     length 2.28437   
     axis -90 7.62852e-016 20   XYZ
    dof rx rz
    limits (-45.0 90.0)
           (-70.0 20.0)
  end
  begin
     id 5 
     name ltoes
     direction 1.5356e-011 -4.21928e-011 1   
     length 1.14243   
     axis -90 7.62852e-016 20   XYZ
    dof rx
    limits (-90.0 20.0)
  end
  begin
     id 6 
     name rhipjoint
     direction -0.573937 -0.753736 0.320122   
     length 2.44889  
     axis 0 0 0  XYZ 
  end
  begin
     id 7 
     name rfemur
     direction -0.34202 -0.939693 0   
     length 7.50166   
     axis 0 0 -20   XYZ
    dof rx ry rz
    limits (-160.0 20.0)
           (-70.0 70.0)
           (-70.0 60.0)
  end
  begin
     id 8 
     name rtibia
     direction -0.34202 -0.939693 0   
     length 7.54266   
     axis 0 0 -20   XYZ
    dof rx
    limits (-10.0 170.0)
 end
 begin
     id 9 
     name rfoot
     direction -0.114017 -0.31326 0.942798   
     length 2.34212  
     axis -90 -7.62852e-016 -20   XYZ
    dof rx rz
    limits (-45.0 90.0)
           (-20.0 70.0)
  end
  begin
     id 10 
     name rtoes
     direction -1.53557e-011 -4.21867e-011 1   
     length 1.16246   
     axis -90 -7.62852e-016 -20   XYZ
    dof rx
    limits (-90.0 20.0)
  end
  begin
     id 11 
     name lowerback
     direction -0.0228371 0.999155 -0.034167   
     length 2.0537   
     axis 0 0 0   XYZ
    dof rx ry rz
    limits (-20.0 45.0)
           (-30.0 30.0)
           (-30.0 30.0)
  end
  begin
     id 12 
     name upperback
     direction 0.0198981 0.999794 0.00389455   
     length 2.05302   
     axis 0 0 0   XYZ
    dof rx ry rz
    limits (-20.0 45.0)
           (-30.0 30.0)
           (-30.0 30.0)
  end
  begin
     id 13 
     name thorax
     direction 0.0304566 0.99935 0.0192987   
     length 2.05315   
     axis 0 0 0   XYZ
    dof rx ry rz
    limits (-20.0 45.0)
           (-30.0 30.0)
           (-30.0 30.0)
  end
  begin
     id 14 
     name lowerneck
     direction -0.0196762 0.99417 0.106017   
     length 1.82056   
     axis 0 0 0   XYZ
    dof rx ry rz
    limits (-20.0 45.0)
           (-30.0 30.0)
           (-30.0 30.0)
  end
  begin
     id 15 
     name upperneck
     direction 0.00517787 0.9802 -0.197944   
     length 1.83835   
     axis 0 0 0   XYZ
    dof rx ry rz
    limits (-20.0 45.0)
           (-30.0 30.0)
           (-30.0 30.0)
  end
  begin
     id 16
     name head
     direction 0.00211419 0.996945 -0.078081  
     length 1.85629  
     axis 0 0 0   XYZ
    dof rx ry rz
    limits (-20.0 45.0)
           (-30.0 30.0)
           (-30.0 30.0)
  end
  begin
     id 17 
     name lclavicle
     direction 0.930001 0.365811 -0.0357824  
     length 3.81961  
     axis 0 0 0   XYZ
    dof ry rz
    limits (-20.0 10.0)
           (0.0 20.0)
  end
  begin
     id 18 
     name lhumerus
     direction 1 -4.48968e-011 -3.06644e-027   
     length 5.14507   
     axis 180 -30 -90   XYZ
    dof rx ry rz
    limits (-60.0 90.0)
           (-90.0 90.0)
           (-90.0 90.0)
  end
  begin
     id 19
     name lradius
     direction 1 -4.48965e-011 9.06925e-028   
     length 3.50646   
     axis 180 -30 -90   XYZ
    dof rx
    limits (-10.0 170.0)
  end
  begin
     id 20
     name lwrist
     direction 1 -4.48957e-011 1.03922e-027   
     length 1.75323   
     axis -2.56395e-016 90 90   XYZ
    dof ry
    limits (-180.0 0.0)
 end
  begin
     id 21 
     name lhand
     direction 1 -4.48967e-011 2.08017e-027   
     length 0.629969   
     axis -1.32723e-015 90 90   XYZ
    dof rx rz
    limits (-90.0 90.0)
           (-45.0 45.0)
  end
  begin
     id 22 
     name lfingers
     direction 1 -4.49089e-011 4.20095e-027   
     length 0.507897   
     axis -2.6545e-015 90 90   XYZ
    dof rx
    limits (0.0 90.0)
  end
  begin
     id 23
     name lthumb
     direction 0.707107 -6.35001e-011 0.707107   
     length 0.729241   
     axis -90 45 5.05613e-014   XYZ
    dof rx rz
    limits (-45.0 45.0)
           (-45.0 45.0)
  end
  begin
     id 24 
     name rclavicle
     direction -0.881882 0.464123 -0.0829113   
     length 3.47515  
     axis 0 0 0   XYZ 
    dof ry rz
    limits (-10.0 20.0)
           (-20.0 0.0)
  end
  begin
     id 25 
     name rhumerus
     direction -1 -4.48961e-011 -1.55672e-027  
     length 5.232   
     axis 180 30 90   XYZ
    dof rx ry rz
    limits (-90.0 60.0)
           (-90.0 90.0)
           (-90.0 90.0)
  end
  begin
     id 26 
     name rradius
     direction -1 -4.48963e-011 6.18178e-029   
     length 3.65641   
     axis 180 30 90   XYZ
    dof rx
    limits (-10.0 170.0)
  end
  begin
     id 27 
     name rwrist
     direction -1 -4.48982e-011 1.04136e-027   
     length 1.8282   
     axis -2.56395e-016 -90 -90   XYZ
    dof ry
    limits (-180.0 0.0)
  end
  begin
     id 28
     name rhand
     direction -1 -4.48929e-011 2.07378e-027   
     length 0.656807   
     axis -1.32723e-015 -90 -90   XYZ
    dof rx rz
    limits (-90.0 90.0)
           (-45.0 45.0)
  end
  begin
     id 29
     name rfingers
     direction -1 -4.489e-011 4.13816e-027   
     length 0.529535   
     axis -2.6545e-015 -90 -90   XYZ
    dof rx
    limits (0.0 90.0)
  end
  begin
     id 30
     name rthumb
     direction -0.707107 -6.34843e-011 0.707107   
     length 0.760309   
     axis -90 -45 -5.05613e-014   XYZ
    dof rx rz
    limits (-45.0 45.0)
           (-45.0 45.0)
  end
:hierarchy
  begin
    root lhipjoint rhipjoint lowerback
    lhipjoint lfemur
    lfemur ltibia
    ltibia lfoot
    lfoot ltoes
    rhipjoint rfemur
    rfemur rtibia
    rtibia rfoot
    rfoot rtoes
    lowerback upperback
    upperback thorax
    thorax lowerneck lclavicle rclavicle
    lowerneck upperneck
    upperneck head
    lclavicle lhumerus
    lhumerus lradius
    lradius lwrist
    lwrist lhand lthumb
    lhand lfingers
    rclavicle rhumerus
    rhumerus rradius
    rradius rwrist
    rwrist rhand rthumb
    rhand rfingers
  end

#!OML:ASF H:\ManfredETheater\Project 1\Capture day 1\Session 1\subject.ASF
:FULLY-SPECIFIED
:DEGREES
31
root 3.37725 14.3148 33.4481 -146.908 12.4761 -169.902
lowerback 36.7259 1.09146 6.28594
upperback 8.91934 6.23117 0.273872
thorax -7.74479 3.84951 -5.45001
lowerneck -9.18626 -0.648503 0.859859
upperneck -1.96143 -0.30941 -9.90822
head 0.966029 -0.0948684 -3.37659
rclavicle -1.35174e-014 3.99557e-014
rhumerus 1.67199 13.2021 -82.4275
rradius 85.6484
rwrist -5.06897
rhand -22.0914 -4.17733
rfingers 7.12502
rthumb 4.32051 -34.1133
lclavicle -1.35174e-014 3.99557e-014
lhumerus -23.1983 6.23793 79.5517
lradius 79.1112
lwrist 5.07803
lhand -32.2585 -3.82388
lfingers 7.12502
lthumb -5.49829 26.0848
rfemur -25.5075 -8.07633 25.3708
rtibia 58.2129
rfoot -32.0225 -8.7826
rtoes -50.2459
lfemur -101.376 7.62442 -23.2761
ltibia 65.8822
lfoot -0.147864 -4.86228
ltoes -2.65342
32
root 3.40076 14.2817 32.9861 -146.41 12.3039 -169.373
lowerback 36.555 1.26203 6.29234
upperback 8.94344 6.41401 0.110369
thorax -7.62012 3.94258 -5.67922
lowerneck -8.96396 -0.68557 1.11017
upperneck -1.7541 -0.402258 -9.82253
head 0.988768 -0.15513 -3.39732
rclavicle -4.69132e-014 1.86858e-014
rhumerus 2.12817 13.3472 -82.6561
rradius 86.8182
rwrist -5.02038
rhand -22.139 -3.6432
rfingers 7.12502
rthumb 4.27452 -33.5801
lclavicle -4.69132e-014 1.86858e-014
lhumerus -22.7215 6.04328 78.9849
lradius 80.0204
lwrist 4.72021
lhand -32.2943 -3.7684
lfingers 7.12502
lthumb -5.53289 26.1394
rfemur -22.9947 -7.1196 25.2774
rtibia 55.4904
rfoot -30.7058 -8.14634
rtoes -50.5814
lfemur -101.828 7.33858 -23.6792
ltibia 64.7312
lfoot 2.93891 -5.5894
ltoes -1.36984
33
root 3.42603 14.2537 32.513 -145.822 12.0902 -168.794
lowerback 36.3568 1.45435 6.27863
upperback 8.95372 6.6122 -0.0403382
thorax -7.50103 4.04019 -5.88819
lowerneck -8.77058 -0.716093 1.37061
upperneck -1.54691 -0.483318 -9.75711
head 1.01722 -0.209081 -3.42702
rclavicle -6.36111e-015 3.20043e-014
rhumerus 2.57038 13.4688 -82.8667
rradius 87.9673
rwrist -5.03717
rhand -22.2136 -3.14501
rfingers 7.12502
rthumb 4.20254 -33.0833
lclavicle -6.36111e-015 3.20043e-014
lhumerus -22.1393 5.81653 78.4162
lradius 80.9288
lwrist 4.3788
lhand -32.3072 -3.72077
lfingers 7.12502
lthumb -5.54531 26.1867
rfemur -20.5266 -6.0332 25.278
rtibia 52.5662
rfoot -28.9821 -7.16337
rtoes -50.8336
lfemur -102.247 7.0336 -24.1146
ltibia 64.105
lfoot 5.17026 -6.13127
ltoes -0.90904
34
root 3.45313 14.2311 32.0293 -145.138 11.8177 -168.167
lowerback 36.1283 1.66172 6.24915
upperback 8.95092 6.81966 -0.173098
thorax -7.38644 4.13953 -6.07108
lowerneck -8.60101 -0.737232 1.62806
upperneck -1.35678 -0.548548 -9.70965
head 1.04521 -0.253719 -3.46204
rclavicle 6.36111e-014 -1.96797e-014
rhumerus 3.00039 13.5659 -83.0582
rradius 89.0971
rwrist -5.07095
rhand -22.3154 -2.69317
rfingers 7.12502
rthumb 4.10418 -32.6334
lclavicle 6.36111e-014 -1.96797e-014
lhumerus -21.4436 5.57856 77.8482
lradius 81.8227
lwrist 4.08407
lhand -32.2978 -3.67284
lfingers 7.12502
lthumb -5.53626 26.2348
rfemur -18.1243 -4.85738 25.3768
rtibia 49.4515
rfoot -26.821 -5.73756
rtoes -50.9373
lfemur -102.62 6.70087 -24.5601
ltibia 64.0073
lfoot 6.80009 -6.55779
ltoes 1.55975
35
root 3.48177 14.2136 31.5359 -144.347 11.4633 -167.509
lowerback 35.8569 1.86953 6.21723
upperback 8.93458 7.02085 -0.292348
thorax -7.27233 4.2333 -6.23297
lowerneck -8.46323 -0.747948 1.86757
upperneck -1.19226 -0.596261 -9.66389
head 1.07146 -0.287995 -3.49382
rclavicle 6.75868e-015 -2.5842e-014
rhumerus 3.42917 13.6356 -83.2365
rradius 90.1951
rwrist -5.05052
rhand -22.4578 -2.24596
rfingers 7.12502
rthumb 3.96669 -32.1888
lclavicle 6.75868e-015 -2.5842e-014
lhumerus -20.6165 5.34864 77.2774
lradius 82.6833
lwrist 3.85015
lhand -32.2668 -3.63754
lfingers 7.12502
lthumb -5.50636 26.2709
rfemur -15.8244 -3.65424 25.564
rtibia 46.1517
rfoot -24.1443 -3.818
rtoes -50.8036
lfemur -102.926 6.31497 -24.9602
ltibia 64.3964
lfoot 7.37657 -6.66572
ltoes 5.23277
36
root 3.51203 14.2025 31.0343 -143.44 11.0154 -166.834
lowerback 35.5374 2.07769 6.17715
upperback 8.90547 7.21342 -0.395967
thorax -7.15697 4.32039 -6.3673
lowerneck -8.36291 -0.753934 2.07649
upperneck -1.0621 -0.633694 -9.60788
head 1.09366 -0.315176 -3.51594
rclavicle 2.10712e-014 -4.55217e-014
rhumerus 3.85828 13.667 -83.3995
rradius 91.2598
rwrist -4.93274
rhand -22.6634 -1.7871
rfingers 7.12502
rthumb 3.76817 -31.7335
lclavicle 2.10712e-014 -4.55217e-014
lhumerus -19.6433 5.1379 76.7097
lradius 83.4961
lwrist 3.67183
lhand -32.227 -3.6273
lfingers 7.12502
lthumb -5.46786 26.2822
rfemur -13.6609 -2.49906 25.8228
rtibia 42.6613
rfoot -20.7755 -1.46199
rtoes -50.2856
lfemur -103.148 5.87442 -25.2298
ltibia 65.1989
lfoot 6.81823 -6.317
ltoes 9.84205
37
root 3.54448 14.1987 30.527 -142.391 10.4942 -166.134
lowerback 35.0754 2.31465 6.09723
upperback 8.9424 7.41177 -0.466212
thorax -7.04562 4.40625 -6.46757
lowerneck -8.31573 -0.759553 2.25194
upperneck -0.957397 -0.666417 -9.53281
head 1.11714 -0.338764 -3.52524
rclavicle 3.49861e-014 -2.00773e-014
rhumerus 4.2827 13.644 -83.5498
rradius 92.2996
rwrist -4.70981
rhand -22.9036 -1.33234
rfingers 7.12502
rthumb 3.53615 -31.2828
lclavicle 3.49861e-014 -2.00773e-014
lhumerus -18.5198 4.94747 76.1434
lradius 84.2563
lwrist 3.54639
lhand -32.1879 -3.63623
lfingers 7.12502
lthumb -5.43013 26.2742
rfemur -11.6963 -1.42891 26.138
rtibia 38.9891
rfoot -16.4963 1.13197
rtoes -49.2539
lfemur -103.299 5.42094 -25.2808
ltibia 66.319
lfoot 5.26725 -5.47658
ltoes 15.1826
38
root 3.57957 14.2032 30.0163 -141.205 9.9197 -165.402
lowerback 34.6682 2.5838 5.96714
upperback 8.86911 7.63265 -0.545147
thorax -6.95331 4.49685 -6.53272
lowerneck -8.35135 -0.294061 2.3152
upperneck -0.769447 -0.79804 -9.42888
head 1.17972 -0.743824 -3.51567
rclavicle -6.79844e-014 2.17669e-014
rhumerus 4.69702 13.5504 -83.6873
rradius 93.3174
rwrist -4.40535
rhand -23.1473 -0.864022
rfingers 7.12502
rthumb 3.30081 -30.8182
lclavicle -6.79844e-014 2.17669e-014
lhumerus -17.238 4.77104 75.5768
lradius 84.959
lwrist 3.47484
lhand -32.1634 -3.64791
lfingers 7.12502
lthumb -5.40646 26.2631
rfemur -9.95792 -0.501339 26.4942
rtibia 35.1659
rfoot -11.1751 3.51694
rtoes -47.6656
lfemur -103.419 5.00227 -25.0382
ltibia 67.6704
lfoot 3.00793 -4.25785
ltoes 20.4747
39
root 3.61684 14.216 29.5055 -139.886 9.28366 -164.644
lowerback 34.2434 2.88856 5.7864
upperback 8.76961 7.87588 -0.614976
thorax -6.88527 4.59266 -6.56815
lowerneck -8.50597 -0.337506 2.40766
upperneck -0.628154 -0.843092 -9.27428
head 1.24995 -0.763494 -3.48537
rclavicle -7.03698e-014 1.19271e-014
rhumerus 5.09962 13.3742 -83.8006
rradius 94.3264
rwrist -4.06289
rhand -23.3647 -0.420885
rfingers 7.12502
rthumb 3.09094 -30.3782
lclavicle -7.03698e-014 1.19271e-014
lhumerus -15.7842 4.6004 75.0109
lradius 85.601
lwrist 3.464
lhand -32.1578 -3.63839
lfingers 7.12502
lthumb -5.40108 26.2728
rfemur -8.48903 0.217785 26.8882
rtibia 31.2671
rfoot -4.82305 5.15765
rtoes -45.5841
lfemur -103.555 4.62386 -24.4377
ltibia 69.1583
lfoot 0.344956 -2.85564
ltoes 25.0132
40
root 3.6545 14.2379 28.9974 -138.471 8.55089 -163.917
lowerback 33.8489 3.19096 5.58669
upperback 8.639 8.10862 -0.692355
thorax -6.86343 4.6782 -6.60118
lowerneck -8.78183 -0.401177 2.45847
upperneck -0.434248 -0.910359 -9.06205
head 1.35745 -0.796795 -3.4309
rclavicle 1.19271e-015 -2.23633e-015
rhumerus 5.49778 13.0981 -83.8828
rradius 95.3256
rwrist -3.74416
rhand -23.5249 -0.00244728
rfingers 7.12502
rthumb 2.93616 -29.962
lclavicle 1.19271e-015 -2.23633e-015
lhumerus -14.1525 4.41282 74.4272
lradius 86.1849
lwrist 3.5312
lhand -32.1775 -3.56983
lfingers 7.12502
lthumb -5.42013 26.3409
rfemur -7.31396 0.628027 27.302
rtibia 27.4226
rfoot 2.22228 5.75582
rtoes -43.265
lfemur -103.718 4.22585 -23.4669
ltibia 70.6908
lfoot -2.44336 -1.46806
ltoes 28.1677
41
root 3.68986 14.2699 28.4942 -137.028 7.66547 -163.302
lowerback 33.5651 3.42294 5.43262
upperback 8.47586 8.2735 -0.799906
thorax -6.91673 4.72723 -6.67793
lowerneck -9.13702 -0.48454 2.50428
upperneck -0.233246 -1.00707 -8.81442
head 1.47988 -0.845812 -3.36646
rclavicle 1.37161e-014 -2.04251e-014
rhumerus 5.89682 12.7262 -83.9363
rradius 96.3203
rwrist -3.50751
rhand -23.6355 0.368861
rfingers 7.12502
rthumb 2.8294 -29.5921
lclavicle 1.37161e-014 -2.04251e-014
lhumerus -12.3353 4.19804 73.7958
lradius 86.7135
lwrist 3.7062
lhand -32.2171 -3.4098
lfingers 7.12502
lthumb -5.45832 26.4999
rfemur -6.44472 0.614236 27.7314
rtibia 23.8413
rfoot 9.36166 5.56493
rtoes -40.8415
lfemur -103.883 3.71579 -22.1487
ltibia 72.1735
lfoot -5.1357 -0.228875
ltoes 29.692
42
root 3.72029 14.3129 27.9971 -135.602 6.60661 -162.882
lowerback 33.3921 3.53402 5.35545
upperback 8.31606 8.32214 -0.950359
thorax -7.00751 4.7232 -6.81044
lowerneck -9.54435 -0.585885 2.51697
upperneck -0.04531 -1.12966 -8.50093
head 1.60603 -0.906438 -3.27548
rclavicle -2.32578e-014 1.68967e-014
rhumerus 6.34199 12.2682 -83.9412
rradius 97.3073
rwrist -3.36167
rhand -23.7036 0.691737
rfingers 7.12502
rthumb 2.76357 -29.2701
lclavicle -2.32578e-014 1.68967e-014
lhumerus -10.2901 3.97105 73.1065
lradius 87.1832
lwrist 4.00489
lhand -32.2604 -3.1543
lfingers 7.12502
lthumb -5.50012 26.7543
rfemur -5.92753 0.115458 28.1543
rtibia 20.8057
rfoot 15.9637 5.1386
rtoes -38.0763
lfemur -104.026 3.00951 -20.5865
ltibia 73.5218
lfoot -7.23983 0.480335
ltoes 30.812
